<?xml version="1.0" encoding="UTF-8" standalone="no"?>
<svg width="364px" height="56px" viewBox="0 0 364 56" version="1.1" xmlns="http://www.w3.org/2000/svg" xmlns:xlink="http://www.w3.org/1999/xlink">
    <!-- Generator: Sketch 3.7.2 (28276) - http://www.bohemiancoding.com/sketch -->
    <title>icon-sn</title>
    <desc>Created with Sketch.</desc>
    <defs></defs>
    <g id="share" stroke="none" stroke-width="1" fill="none" fill-rule="evenodd">
        <g id="icon-sn">
            <g id="Group-14">
                <rect id="Rectangle-54" x="0" y="0" width="28" height="28"></rect>
                <g id="Blue-G" transform="translate(5.000000, 5.000000)" fill="#FFFFFF">
                    <polygon id="Rectangle-1" points="8.81616595 8.15580286 16.236439 8.15580286 16.1629709 10.572337 8.81616595 10.572337"></polygon>
                    <path d="M16.8561,8.15580286 C16.856346,8.18568341 16.8564691,8.21562472 16.8564691,8.24562643 C17.6717923,14.399352 13.594459,17.9427368 8.70596388,17.8974563 C3.89779743,17.8903697 0,13.8909742 0,8.94872814 C0,4.00648206 3.8977928,0 8.70596388,0 C11.2192182,0 13.331976,0.902550726 14.776248,2.46993686 L13.0782817,4.2152506 C12.0192092,3.10222354 10.5150104,2.49205087 8.77943193,2.49205087 C5.3102452,2.49205087 2.49791369,5.38280375 2.49791369,8.94872814 C2.49791369,12.5146525 5.3102452,15.4054054 8.77943193,15.4054054 C12.2486187,15.4054054 14.7116899,13.3438882 14.7065242,8.94872814 C14.7123917,8.67711012 14.7062381,8.41271349 14.6885905,8.15580286 L16.8561,8.15580286 Z" id="Oval-1"></path>
                </g>
            </g>
            <g id="Group-18" transform="translate(112.000000, 0.000000)">
                <rect id="Rectangle-58" x="0" y="0" width="28" height="28"></rect>
                <path d="M10.2899155,22.6666667 C7.97271297,22.6666667 5.81586744,21.9701531 4,20.7763655 C4.32100662,20.8152232 4.64764622,20.8351022 4.97882146,20.8351022 C6.90120341,20.8351022 8.67047076,20.1624433 10.074765,19.0339938 C8.27923479,19.000012 6.76389041,17.7835699 6.24177914,16.1119373 C6.4922638,16.1610721 6.74933246,16.1874023 7.01371667,16.1874023 C7.38798054,16.1874023 7.75046637,16.1360171 8.09480961,16.0398479 C6.21763781,15.653371 4.80332126,13.9527826 4.80332126,11.9141769 C4.80332126,11.8964734 4.80332126,11.8788449 4.80361388,11.8612914 C5.35688943,12.1764291 5.98953875,12.3656918 6.66220418,12.3875211 C5.56121292,11.633021 4.83675336,10.3451647 4.83675336,8.8854492 C4.83675336,8.11437076 5.03910165,7.39160193 5.39229672,6.77017827 C7.41607228,9.31573483 10.4395186,10.9908182 13.8497385,11.1662781 C13.7798017,10.8583418 13.7434434,10.5372029 13.7434434,10.2074373 C13.7434434,7.88384989 15.5806723,6 17.8468122,6 C19.0269578,6 20.0933465,6.51100169 20.8418742,7.32873942 C21.7765097,7.14000186 22.6546692,6.78983218 23.447456,6.30771123 C23.1410805,7.29018175 22.4905081,8.11474583 21.6432935,8.63549946 C22.4733165,8.53377922 23.2641282,8.30760921 24,7.97296762 C23.4498701,8.81673553 22.7541607,9.557808 21.952522,10.1510261 C21.9604228,10.331437 21.9643732,10.5128981 21.9643732,10.6953344 C21.9643732,16.2553658 17.8372289,22.6666667 10.2899155,22.6666667" id="Fill-4" fill="#FFFFFF"></path>
            </g>
            <g id="Group-20" transform="translate(168.000000, 0.000000)">
                <rect id="Rectangle-59" x="0" y="0" width="28" height="28"></rect>
                <path d="M12.4128631,5 C12.4688797,5.51655629 12.4875519,5.95364238 12.4875519,6.68874172 C12.4875519,11.4172185 11.4605809,14.6953642 9.07053942,17.6357616 C7.89419087,19.0662252 6.90456432,19.8807947 5,20.9536424 C5.67219917,21.589404 6.02697095,22.0860927 6.45643154,23 C7.76348548,22.1456954 8.37966805,21.6688742 9.35062241,20.7152318 C10.6763485,19.4238411 11.4792531,18.3509934 12.2261411,16.9006623 C12.9917012,15.3907285 13.3278008,14.4768212 13.6825726,12.8874172 C14.3174274,15.1721854 15.026971,16.7019868 16.1659751,18.3112583 C17.4917012,20.1788079 18.6307054,21.3112583 20.9087137,23 C21.3568465,22.0463576 21.6556017,21.5695364 22.3651452,20.794702 C21.1327801,20.0993377 20.5726141,19.6821192 19.4709544,18.6490066 C18.1452282,17.4172185 17.3236515,16.3642384 16.5207469,14.8741722 C15.1763485,12.3311258 14.6908714,10.2251656 14.6908714,6.84768212 C14.6908714,6.37086093 14.7655602,5.25827815 14.8215768,5 L12.4128631,5 Z" id="人-2" fill="#FFFFFF"></path>
            </g>
            <g id="Group-22" transform="translate(224.000000, 0.000000)">
                <rect id="Rectangle-60" x="0" y="0" width="28" height="28"></rect>
                <path d="M6.59259259,6 L21.4684444,6 L21.4684444,7.74030769 L6.59259259,7.74030769 L6.59259259,6 Z M7.88562963,16.3575385 L20.1748148,16.3575385 L20.1748148,9.55507692 L7.88562963,9.55507692 L7.88562963,16.3575385 Z M9.66755556,11.2941538 L18.4106667,11.2941538 L18.4106667,14.6196923 L9.66755556,14.6196923 L9.66755556,11.2941538 Z M17.5164444,20.2787692 C18.0515556,19.4283077 18.5558519,18.4424615 19.0234074,17.3236923 L17.2355556,16.6473846 C16.7703704,17.9729231 16.2293333,19.1858462 15.613037,20.2787692 L12.5019259,20.2787692 C11.9863704,18.8621538 11.4044444,17.6504615 10.752,16.6473846 L9.10755556,17.3236923 C9.78548148,18.3803077 10.3324444,19.3636923 10.752,20.2787692 L6.17185185,20.2787692 L6.17185185,22 L21.8891852,22 L21.8891852,20.2787692 L17.5164444,20.2787692 Z" id="Fill-6" fill="#FFFFFF"></path>
            </g>
            <g id="Group-15" transform="translate(28.000000, 0.000000)">
                <rect id="Rectangle-62" x="0" y="0" width="28" height="28"></rect>
                <path d="M23,14.2268176 C23,9.13284536 18.96875,5 14,5 C9.03125,5 5,9.13284536 5,14.2268176 C5,18.2995925 7.578125,21.7596491 11.1523438,22.9850858 C11.609375,23.0691844 11.7734375,22.7808463 11.7734375,22.5405646 C11.7734375,22.3243111 11.7617188,21.5914519 11.7617188,20.8225504 C11.7617188,20.8225504 9.25390625,21.3751983 8.7265625,19.7292686 C8.7265625,19.7292686 8.31640625,18.6600151 7.73046875,18.3836911 C7.73046875,18.3836911 6.91015625,17.807015 7.7890625,17.8190291 C7.7890625,17.8190291 8.6796875,17.8911136 9.171875,18.7681418 C9.95703125,20.1858039 11.2695312,19.777325 11.7851562,19.5370433 C11.8671875,18.936339 12.1015625,18.5398742 12.359375,18.2995925 C10.3554688,18.0713249 8.2578125,17.2783952 8.2578125,13.7462541 C8.2578125,12.737071 8.609375,11.9080991 9.18359375,11.2713526 C9.08984375,11.0310708 8.78515625,10.0939722 9.265625,8.82047914 C10.0273438,8.58019744 11.75,9.76959189 11.75,9.76959189 C12.4648438,9.56535244 13.2382812,9.45722567 14,9.45722567 C14.7617188,9.45722567 15.5351562,9.56535244 16.25,9.76959189 C16.25,9.76959189 17.9726562,8.58019744 18.7226562,8.82047914 C19.2148438,10.0939722 18.9101562,11.0310708 18.8164062,11.2713526 C19.390625,11.9080991 19.7421875,12.737071 19.7421875,13.7462541 C19.7421875,17.2904093 17.6328125,18.0713249 15.6289062,18.2995925 C15.9570312,18.5879305 16.2382812,19.1405785 16.2382812,20.0055926 L16.2382812,22.5405646 C16.2382812,22.7808463 16.390625,23.0691844 16.8476562,22.9850858 C20.421875,21.7596491 23,18.2995925 23,14.2268176 L23,14.2268176 Z" id="github---FontAwesome" fill="#FFFFFF"></path>
            </g>
            <g id="Group-16" transform="translate(56.000000, 0.000000)">
                <rect id="Rectangle-53" x="0" y="0" width="28" height="28"></rect>
                <path d="M11.5334911,18.4269611 C11.20983,18.9403546 10.5178649,19.1635692 10.0044714,18.9291939 C9.5022387,18.6948186 9.34598852,18.1033 9.66964962,17.6010673 C9.98214999,17.1099953 10.6517936,16.8867807 11.1540264,17.0988346 C11.6785806,17.3220491 11.8459915,17.9135677 11.5334911,18.4269611 L11.5334911,18.4269611 Z M12.5825995,17.0765131 C12.4709922,17.2774062 12.2142955,17.366692 12.0134024,17.2885669 C11.8125093,17.1992811 11.7567057,16.9872273 11.868313,16.7863342 C11.9799202,16.5966018 12.2254562,16.507316 12.4263493,16.5742804 C12.6272424,16.6524055 12.6942068,16.87562 12.5825995,17.0765131 L12.5825995,17.0765131 Z M14.5245661,18.270711 C15.1942098,16.7751735 14.3683159,15.2349931 12.727689,14.8108854 C11.1540264,14.4090992 9.3794707,15.1903501 8.68750559,16.5742804 C7.99554048,17.9916928 8.66518413,19.5653554 10.2611682,20.0787488 C11.9129559,20.6144638 13.8549225,19.7885699 14.5245661,18.270711 L14.5245661,18.270711 Z M18.0067131,16.4849945 C18.218767,18.6613364 15.718764,20.6814281 12.4040279,21.0162499 C9.08929178,21.339911 6.23214552,19.8443736 6.02009169,17.6680317 C5.80803787,15.4916898 8.30804085,13.4715981 11.6227769,13.1367763 C14.937513,12.8131152 17.7946593,14.3086527 18.0067131,16.4849945 L18.0067131,16.4849945 Z M21.4442172,16.5296375 C21.4442172,15.0117785 20.1718943,14.1524025 19.0223393,13.7952592 C18.7433211,13.7059734 18.5535888,13.6501697 18.6986782,13.2818657 C19.0111786,12.4782933 19.0446608,11.7863282 18.6986782,11.2952562 C18.051356,10.3689158 16.2768003,10.4135587 14.2455479,11.2729348 C14.2455479,11.261774 13.6093865,11.551953 13.7656366,11.0385595 C14.078137,10.034094 14.0334941,9.1858787 13.5424221,8.70596742 C12.4375101,7.60105538 9.5022387,8.7394496 6.97991427,11.261774 C5.0937513,13.147937 4,15.1457072 4,16.87562 C4,20.1903561 8.24107648,22.1992871 12.3928671,22.1992871 C17.8281415,22.1992871 21.4442172,19.0408012 21.4442172,16.5296375 L21.4442172,16.5296375 Z M20.6183234,9.56534344 C19.9821619,8.85105687 19.0335001,8.58319941 18.1629633,8.77293178 C17.80582,8.85105687 17.5826055,9.19703943 17.6607306,9.55418271 C17.7276949,9.911326 18.0848382,10.1345405 18.4419815,10.0564155 C18.8660892,9.96712963 19.323679,10.1010584 19.6361794,10.4470409 C19.9486797,10.7930235 20.0379655,11.261774 19.9040368,11.6858817 C19.7924295,12.0318642 19.9821619,12.4001682 20.3281445,12.5117755 C20.674127,12.6233828 21.042431,12.4336504 21.1540383,12.0876679 C21.4330565,11.2394526 21.2544849,10.2684693 20.6183234,9.56534344 L20.6183234,9.56534344 Z M22.6384151,7.74614484 C21.3214492,6.28408953 19.3906433,5.73721388 17.5937662,6.11667861 C17.1808193,6.20596444 16.9129618,6.60775063 17.0022476,7.02069755 C17.0915335,7.43364447 17.5044804,7.70150193 17.9174273,7.61221611 C19.1897503,7.34435865 20.5625197,7.73498412 21.5000209,8.77293178 C22.437522,9.79971872 22.683058,11.2171311 22.2812718,12.4559719 C22.1585038,12.8577581 22.3817183,13.2818657 22.7835045,13.4157945 C23.1852907,13.5497232 23.6093984,13.3265086 23.7433271,12.9247224 C24.3013635,11.1836489 23.9553809,9.19703943 22.6384151,7.74614484 L22.6384151,7.74614484 Z" id="weibo---FontAwesome" fill="#FFFFFF"></path>
            </g>
            <g id="Group-17" transform="translate(84.000000, 0.000000)">
                <rect id="Rectangle-57" x="0" y="0" width="28" height="28"></rect>
                <path d="M7.53125,13.0959821 C5.96428571,14.28125 5,15.7678571 5,17.7767857 C5,18.1484375 5.09040179,18.4497768 5.23102679,18.78125 C5.29129464,18.8013393 5.26116071,18.8816964 5.34151786,18.8816964 L5.3515625,18.8816964 C5.93415179,18.8214286 6.45647321,18.2689732 6.67745536,17.7566964 C6.69754464,17.7064732 6.72767857,17.5558036 6.79799107,17.5558036 L6.84821429,17.5859375 C6.99888393,18.3091518 7.97321429,20.0569196 8.66629464,20.2176339 L8.68638393,20.2477679 C8.68638393,20.2779018 8.67633929,20.2779018 8.66629464,20.2879464 C8.61607143,20.2979911 8.57589286,20.3080357 8.52566964,20.3080357 C8.1640625,20.328125 7.93303571,20.4988839 7.62165179,20.5591518 C7.22991071,20.9207589 7.109375,21.0814732 7.109375,21.6439732 C7.109375,22.9497768 10.0625,23 10.8258929,23 C11.6897321,23 13.1863839,22.8191964 13.7991071,22.1462054 C14.0602679,22.1763393 14.421875,22.1361607 14.6629464,22.2064732 C15.8180804,22.5479911 16.8125,22.8694196 18.0379464,22.8694196 C18.9620536,22.8694196 20.4988839,22.7589286 21.0714286,21.8950893 C21.1517857,21.7845982 21.1316964,21.6640625 21.1819196,21.5535714 C21.0111607,20.5993304 20.0870536,20.6495536 19.5145089,20.0970982 C20.1674107,19.4743304 20.5189732,18.6908482 20.8404018,17.8571429 L20.890625,17.8169643 C20.9006696,17.8169643 20.9107143,17.8169643 20.9207589,17.8270089 C21.0613839,18.0881696 21.4933036,19.0424107 21.8850446,19.0424107 C22.4475446,19.0424107 22.6383929,17.8169643 22.6383929,17.4654018 C22.6383929,15.8783482 21.8549107,14.4921875 20.9910714,13.2165179 C20.9810268,13.1964286 20.9207589,13.1160714 20.9207589,13.0959821 C20.9207589,12.8549107 21.1015625,12.5837054 21.1015625,12.3125 C21.1015625,11.7700893 20.8404018,11.2477679 20.5491071,10.8058036 L20.5390625,10.7555804 C20.0368304,8.39508929 19.5044643,6.546875 17.1439732,5.55245536 C16.3203125,5.2109375 15.3560268,5 14.4720982,5 C13.3370536,5 12.2522321,5.17075893 11.2176339,5.66294643 C9.54017857,6.46651786 8.10379464,8.80691964 8.10379464,10.6651786 C7.90290179,10.8359375 7.79241071,11.3683036 7.80245536,11.6294643 C7.63169643,11.8404018 7.45089286,12.2924107 7.45089286,12.5736607 C7.45089286,12.7544643 7.4609375,12.9252232 7.53125,13.0959821 L7.53125,13.0959821 Z" id="qq---FontAwesome" fill="#FFFFFF"></path>
            </g>
            <g id="Group-19" transform="translate(140.000000, 0.000000)">
                <rect id="Rectangle-63" x="0" y="0" width="28" height="28"></rect>
                <path d="M19.3846154,4.14423077 C19.0600962,4.09615385 17.9423077,4 16.6442308,4 C13.9278846,4 12.0649038,5.65865385 12.0649038,8.69951923 L12.0649038,11.3197115 L9,11.3197115 L9,14.8774038 L12.0649038,14.8774038 L12.0649038,24 L15.7427885,24 L15.7427885,14.8774038 L18.7956731,14.8774038 L19.2644231,11.3197115 L15.7427885,11.3197115 L15.7427885,9.04807692 C15.7427885,8.02644231 16.0192308,7.31730769 17.4975962,7.31730769 L19.3846154,7.31730769 L19.3846154,4.14423077 Z" id="facebook---FontAwesome" fill="#FFFFFF"></path>
            </g>
            <g id="Group-21" transform="translate(196.000000, 0.000000)">
                <rect id="Rectangle-56" x="0" y="0" width="28" height="28"></rect>
                <path d="M16.7611712,10.3839362 C16.7611712,9.18973833 15.7901879,8.22991576 14.6071507,8.22991576 C13.4129529,8.22991576 12.4531303,9.18973833 12.4531303,10.3839362 C12.4531303,10.6852758 12.5089339,10.9754547 12.6317019,11.2433122 C12.1629514,11.7343842 11.6607186,12.3370635 11.1584859,13.0848323 C9.78571641,15.1272454 8.23437528,18.587071 8.66964366,23.4754696 C8.70312584,23.7768093 8.95982257,24.0000238 9.25000149,24.0000238 L9.30580513,24.0000238 C9.6183055,23.9665417 9.85268078,23.6875235 9.83035932,23.3638624 C9.4955375,19.7366259 10.2656277,16.5111756 12.0848263,13.7767974 C12.5200947,13.1294752 12.9665238,12.5825995 13.36831,12.1473311 C13.7254533,12.3928671 14.1495609,12.5379566 14.6071507,12.5379566 C15.7901879,12.5379566 16.7611712,11.5669733 16.7611712,10.3839362 L16.7611712,10.3839362 Z M21.0134084,10.5067042 C21.0134084,6.9129499 18.1004585,4 14.5067042,4 C10.9241106,4 8,6.9129499 8,10.5067042 C8,11.5334911 8.24553601,12.5602781 8.71428657,13.464297 C8.85937602,13.7544759 9.20535858,13.8660832 9.4955375,13.7209937 C9.77455569,13.5759043 9.88616296,13.2299217 9.7410735,12.9397428 C9.36160877,12.1808133 9.16071567,11.3660802 9.16071567,10.5067042 C9.16071567,7.5602721 11.5602721,5.16071567 14.5067042,5.16071567 C17.4531363,5.16071567 19.8526927,7.5602721 19.8526927,10.5067042 C19.8526927,13.4531363 17.4531363,15.8526927 14.5067042,15.8526927 C14.104918,15.8526927 13.6919711,15.8080498 13.3013456,15.7076032 C12.9888452,15.6406389 12.6875056,15.841532 12.6093805,16.1428716 C12.5424161,16.455372 12.7321485,16.7678724 13.0446489,16.8459975 C13.5245602,16.946444 14.0156322,17.0022476 14.5067042,17.0022476 C18.1004585,17.0022476 21.0134084,14.0892977 21.0134084,10.5067042 L21.0134084,10.5067042 Z" id="tencent-weibo---FontAwesome" fill="#FFFFFF"></path>
            </g>
            <g id="Group-23" transform="translate(252.000000, 0.000000)">
                <rect id="Rectangle-61" x="0" y="0" width="28" height="28"></rect>
                <path d="M9.23046875,9.3057554 C9.23046875,9.88848921 8.84375,10.2769784 8.25292969,10.2769784 C7.67285156,10.2769784 7.08203125,9.88848921 7.08203125,9.3057554 C7.08203125,8.71223022 7.67285156,8.32374101 8.25292969,8.32374101 C8.84375,8.32374101 9.23046875,8.71223022 9.23046875,9.3057554 L9.23046875,9.3057554 Z M17.2119141,14.7769784 C17.2119141,15.176259 16.8251953,15.5647482 16.234375,15.5647482 C15.8476562,15.5647482 15.4609375,15.176259 15.4609375,14.7769784 C15.4609375,14.3884892 15.8476562,14 16.234375,14 C16.8251953,14 17.2119141,14.3884892 17.2119141,14.7769784 L17.2119141,14.7769784 Z M14.6767578,9.3057554 C14.6767578,9.88848921 14.2900391,10.2769784 13.7099609,10.2769784 C13.1191406,10.2769784 12.5390625,9.88848921 12.5390625,9.3057554 C12.5390625,8.71223022 13.1191406,8.32374101 13.7099609,8.32374101 C14.2900391,8.32374101 14.6767578,8.71223022 14.6767578,9.3057554 L14.6767578,9.3057554 Z M21.4980469,14.7769784 C21.4980469,15.176259 21.1005859,15.5647482 20.5205078,15.5647482 C20.1337891,15.5647482 19.7470703,15.176259 19.7470703,14.7769784 C19.7470703,14.3884892 20.1337891,14 20.5205078,14 C21.1005859,14 21.4980469,14.3884892 21.4980469,14.7769784 L21.4980469,14.7769784 Z M18.640625,10.4928058 C17.9746094,7.34172662 14.6123047,5 10.7880859,5 C6.50195312,5 3,7.92446043 3,11.647482 C3,13.794964 4.17089844,15.5647482 6.11523438,16.9352518 L5.34179688,19.2877698 L8.05957031,17.9172662 C9.03710938,18.1115108 9.81054688,18.3057554 10.7880859,18.3057554 C11.0351562,18.3057554 11.2714844,18.294964 11.5185547,18.2733813 C11.3574219,17.7553957 11.2714844,17.205036 11.2714844,16.6330935 C11.2714844,13.2230216 14.1933594,10.4496403 17.8886719,10.4496403 C18.1464844,10.4496403 18.3935547,10.4604317 18.640625,10.4928058 L18.640625,10.4928058 Z M25,16.5467626 C25,13.4172662 21.8847656,10.8705036 18.3828125,10.8705036 C14.6767578,10.8705036 11.765625,13.4172662 11.765625,16.5467626 C11.765625,19.676259 14.6767578,22.2230216 18.3828125,22.2230216 C19.15625,22.2230216 19.9404297,22.0179856 20.7246094,21.823741 L22.8623047,23 L22.2714844,21.0467626 C23.8398438,19.8705036 25,18.3057554 25,16.5467626 L25,16.5467626 Z" id="weixin---FontAwesome" fill="#FFFFFF"></path>
            </g>
            <g id="Group-24" transform="translate(280.000000, 0.000000)">
                <rect id="Rectangle-34" x="0" y="0" width="28" height="28"></rect>
                <path d="M8,16 C9.1045695,16 10,15.1045695 10,14 C10,12.8954305 9.1045695,12 8,12 C6.8954305,12 6,12.8954305 6,14 C6,15.1045695 6.8954305,16 8,16 Z M14,16 C15.1045695,16 16,15.1045695 16,14 C16,12.8954305 15.1045695,12 14,12 C12.8954305,12 12,12.8954305 12,14 C12,15.1045695 12.8954305,16 14,16 Z M20,16 C21.1045695,16 22,15.1045695 22,14 C22,12.8954305 21.1045695,12 20,12 C18.8954305,12 18,12.8954305 18,14 C18,15.1045695 18.8954305,16 20,16 Z" id="Oval-2" fill="#888888"></path>
            </g>
            <g id="Group" transform="translate(0.000000, 28.000000)">
                <rect id="Rectangle-54" fill-opacity="0" fill="#000000" x="0" y="0" width="28" height="28"></rect>
                <g id="Blue-G" transform="translate(5.000000, 5.000000)" fill="#3182F6">
                    <polygon id="Rectangle-1" points="8.81616595 8.15580286 16.236439 8.15580286 16.1629709 10.572337 8.81616595 10.572337"></polygon>
                    <path d="M16.8561,8.15580286 C16.856346,8.18568341 16.8564691,8.21562472 16.8564691,8.24562643 C17.6717923,14.399352 13.594459,17.9427368 8.70596388,17.8974563 C3.89779743,17.8903697 0,13.8909742 0,8.94872814 C0,4.00648206 3.8977928,0 8.70596388,0 C11.2192182,0 13.331976,0.902550726 14.776248,2.46993686 L13.0782817,4.2152506 C12.0192092,3.10222354 10.5150104,2.49205087 8.77943193,2.49205087 C5.3102452,2.49205087 2.49791369,5.38280375 2.49791369,8.94872814 C2.49791369,12.5146525 5.3102452,15.4054054 8.77943193,15.4054054 C12.2486187,15.4054054 14.7116899,13.3438882 14.7065242,8.94872814 C14.7123917,8.67711012 14.7062381,8.41271349 14.6885905,8.15580286 L16.8561,8.15580286 Z" id="Oval-1"></path>
                </g>
            </g>
            <g id="Group-11" transform="translate(280.000000, 28.000000)">
                <rect id="Rectangle-34" fill-opacity="0" fill="#000000" x="0" y="0" width="28" height="28"></rect>
                <path d="M8,16 C9.1045695,16 10,15.1045695 10,14 C10,12.8954305 9.1045695,12 8,12 C6.8954305,12 6,12.8954305 6,14 C6,15.1045695 6.8954305,16 8,16 Z M14,16 C15.1045695,16 16,15.1045695 16,14 C16,12.8954305 15.1045695,12 14,12 C12.8954305,12 12,12.8954305 12,14 C12,15.1045695 12.8954305,16 14,16 Z M20,16 C21.1045695,16 22,15.1045695 22,14 C22,12.8954305 21.1045695,12 20,12 C18.8954305,12 18,12.8954305 18,14 C18,15.1045695 18.8954305,16 20,16 Z" id="Oval-2" fill="#888888"></path>
            </g>
            <g id="Group-5" transform="translate(112.000000, 28.000000)">
                <rect id="Rectangle-58" fill-opacity="0" fill="#000000" x="0" y="0" width="28" height="28"></rect>
                <path d="M10.2899155,22.6666667 C7.97271297,22.6666667 5.81586744,21.9701531 4,20.7763655 C4.32100662,20.8152232 4.64764622,20.8351022 4.97882146,20.8351022 C6.90120341,20.8351022 8.67047076,20.1624433 10.074765,19.0339938 C8.27923479,19.000012 6.76389041,17.7835699 6.24177914,16.1119373 C6.4922638,16.1610721 6.74933246,16.1874023 7.01371667,16.1874023 C7.38798054,16.1874023 7.75046637,16.1360171 8.09480961,16.0398479 C6.21763781,15.653371 4.80332126,13.9527826 4.80332126,11.9141769 C4.80332126,11.8964734 4.80332126,11.8788449 4.80361388,11.8612914 C5.35688943,12.1764291 5.98953875,12.3656918 6.66220418,12.3875211 C5.56121292,11.633021 4.83675336,10.3451647 4.83675336,8.8854492 C4.83675336,8.11437076 5.03910165,7.39160193 5.39229672,6.77017827 C7.41607228,9.31573483 10.4395186,10.9908182 13.8497385,11.1662781 C13.7798017,10.8583418 13.7434434,10.5372029 13.7434434,10.2074373 C13.7434434,7.88384989 15.5806723,6 17.8468122,6 C19.0269578,6 20.0933465,6.51100169 20.8418742,7.32873942 C21.7765097,7.14000186 22.6546692,6.78983218 23.447456,6.30771123 C23.1410805,7.29018175 22.4905081,8.11474583 21.6432935,8.63549946 C22.4733165,8.53377922 23.2641282,8.30760921 24,7.97296762 C23.4498701,8.81673553 22.7541607,9.557808 21.952522,10.1510261 C21.9604228,10.331437 21.9643732,10.5128981 21.9643732,10.6953344 C21.9643732,16.2553658 17.8372289,22.6666667 10.2899155,22.6666667" id="Fill-4" fill="#4BAAF4"></path>
            </g>
            <g id="Group-7" transform="translate(168.000000, 28.000000)">
                <rect id="Rectangle-59" fill-opacity="0" fill="#000000" x="0" y="0" width="28" height="28"></rect>
                <path d="M12.4128631,5 C12.4688797,5.51655629 12.4875519,5.95364238 12.4875519,6.68874172 C12.4875519,11.4172185 11.4605809,14.6953642 9.07053942,17.6357616 C7.89419087,19.0662252 6.90456432,19.8807947 5,20.9536424 C5.67219917,21.589404 6.02697095,22.0860927 6.45643154,23 C7.76348548,22.1456954 8.37966805,21.6688742 9.35062241,20.7152318 C10.6763485,19.4238411 11.4792531,18.3509934 12.2261411,16.9006623 C12.9917012,15.3907285 13.3278008,14.4768212 13.6825726,12.8874172 C14.3174274,15.1721854 15.026971,16.7019868 16.1659751,18.3112583 C17.4917012,20.1788079 18.6307054,21.3112583 20.9087137,23 C21.3568465,22.0463576 21.6556017,21.5695364 22.3651452,20.794702 C21.1327801,20.0993377 20.5726141,19.6821192 19.4709544,18.6490066 C18.1452282,17.4172185 17.3236515,16.3642384 16.5207469,14.8741722 C15.1763485,12.3311258 14.6908714,10.2251656 14.6908714,6.84768212 C14.6908714,6.37086093 14.7655602,5.25827815 14.8215768,5 L12.4128631,5 Z" id="人-2" fill="#0B79CB"></path>
            </g>
            <g id="Group-9" transform="translate(224.000000, 28.000000)">
                <rect id="Rectangle-60" fill-opacity="0" fill="#000000" x="0" y="0" width="28" height="28"></rect>
                <path d="M6.59259259,6 L21.4684444,6 L21.4684444,7.74030769 L6.59259259,7.74030769 L6.59259259,6 Z M7.88562963,16.3575385 L20.1748148,16.3575385 L20.1748148,9.55507692 L7.88562963,9.55507692 L7.88562963,16.3575385 Z M9.66755556,11.2941538 L18.4106667,11.2941538 L18.4106667,14.6196923 L9.66755556,14.6196923 L9.66755556,11.2941538 Z M17.5164444,20.2787692 C18.0515556,19.4283077 18.5558519,18.4424615 19.0234074,17.3236923 L17.2355556,16.6473846 C16.7703704,17.9729231 16.2293333,19.1858462 15.613037,20.2787692 L12.5019259,20.2787692 C11.9863704,18.8621538 11.4044444,17.6504615 10.752,16.6473846 L9.10755556,17.3236923 C9.78548148,18.3803077 10.3324444,19.3636923 10.752,20.2787692 L6.17185185,20.2787692 L6.17185185,22 L21.8891852,22 L21.8891852,20.2787692 L17.5164444,20.2787692 Z" id="Fill-6" fill="#1F9832"></path>
            </g>
            <g id="Group-2" transform="translate(28.000000, 28.000000)">
                <rect id="Rectangle-62" fill-opacity="0" fill="#000000" x="0" y="0" width="28" height="28"></rect>
                <path d="M23,14.2268176 C23,9.13284536 18.96875,5 14,5 C9.03125,5 5,9.13284536 5,14.2268176 C5,18.2995925 7.578125,21.7596491 11.1523438,22.9850858 C11.609375,23.0691844 11.7734375,22.7808463 11.7734375,22.5405646 C11.7734375,22.3243111 11.7617188,21.5914519 11.7617188,20.8225504 C11.7617188,20.8225504 9.25390625,21.3751983 8.7265625,19.7292686 C8.7265625,19.7292686 8.31640625,18.6600151 7.73046875,18.3836911 C7.73046875,18.3836911 6.91015625,17.807015 7.7890625,17.8190291 C7.7890625,17.8190291 8.6796875,17.8911136 9.171875,18.7681418 C9.95703125,20.1858039 11.2695312,19.777325 11.7851562,19.5370433 C11.8671875,18.936339 12.1015625,18.5398742 12.359375,18.2995925 C10.3554688,18.0713249 8.2578125,17.2783952 8.2578125,13.7462541 C8.2578125,12.737071 8.609375,11.9080991 9.18359375,11.2713526 C9.08984375,11.0310708 8.78515625,10.0939722 9.265625,8.82047914 C10.0273438,8.58019744 11.75,9.76959189 11.75,9.76959189 C12.4648438,9.56535244 13.2382812,9.45722567 14,9.45722567 C14.7617188,9.45722567 15.5351562,9.56535244 16.25,9.76959189 C16.25,9.76959189 17.9726562,8.58019744 18.7226562,8.82047914 C19.2148438,10.0939722 18.9101562,11.0310708 18.8164062,11.2713526 C19.390625,11.9080991 19.7421875,12.737071 19.7421875,13.7462541 C19.7421875,17.2904093 17.6328125,18.0713249 15.6289062,18.2995925 C15.9570312,18.5879305 16.2382812,19.1405785 16.2382812,20.0055926 L16.2382812,22.5405646 C16.2382812,22.7808463 16.390625,23.0691844 16.8476562,22.9850858 C20.421875,21.7596491 23,18.2995925 23,14.2268176 L23,14.2268176 Z" id="github---FontAwesome" fill="#333333"></path>
            </g>
            <g id="Group-3" transform="translate(56.000000, 28.000000)">
                <rect id="Rectangle-53" fill-opacity="0" fill="#000000" x="0" y="0" width="28" height="28"></rect>
                <path d="M11.5334911,18.4269611 C11.20983,18.9403546 10.5178649,19.1635692 10.0044714,18.9291939 C9.5022387,18.6948186 9.34598852,18.1033 9.66964962,17.6010673 C9.98214999,17.1099953 10.6517936,16.8867807 11.1540264,17.0988346 C11.6785806,17.3220491 11.8459915,17.9135677 11.5334911,18.4269611 L11.5334911,18.4269611 Z M12.5825995,17.0765131 C12.4709922,17.2774062 12.2142955,17.366692 12.0134024,17.2885669 C11.8125093,17.1992811 11.7567057,16.9872273 11.868313,16.7863342 C11.9799202,16.5966018 12.2254562,16.507316 12.4263493,16.5742804 C12.6272424,16.6524055 12.6942068,16.87562 12.5825995,17.0765131 L12.5825995,17.0765131 Z M14.5245661,18.270711 C15.1942098,16.7751735 14.3683159,15.2349931 12.727689,14.8108854 C11.1540264,14.4090992 9.3794707,15.1903501 8.68750559,16.5742804 C7.99554048,17.9916928 8.66518413,19.5653554 10.2611682,20.0787488 C11.9129559,20.6144638 13.8549225,19.7885699 14.5245661,18.270711 L14.5245661,18.270711 Z M18.0067131,16.4849945 C18.218767,18.6613364 15.718764,20.6814281 12.4040279,21.0162499 C9.08929178,21.339911 6.23214552,19.8443736 6.02009169,17.6680317 C5.80803787,15.4916898 8.30804085,13.4715981 11.6227769,13.1367763 C14.937513,12.8131152 17.7946593,14.3086527 18.0067131,16.4849945 L18.0067131,16.4849945 Z M21.4442172,16.5296375 C21.4442172,15.0117785 20.1718943,14.1524025 19.0223393,13.7952592 C18.7433211,13.7059734 18.5535888,13.6501697 18.6986782,13.2818657 C19.0111786,12.4782933 19.0446608,11.7863282 18.6986782,11.2952562 C18.051356,10.3689158 16.2768003,10.4135587 14.2455479,11.2729348 C14.2455479,11.261774 13.6093865,11.551953 13.7656366,11.0385595 C14.078137,10.034094 14.0334941,9.1858787 13.5424221,8.70596742 C12.4375101,7.60105538 9.5022387,8.7394496 6.97991427,11.261774 C5.0937513,13.147937 4,15.1457072 4,16.87562 C4,20.1903561 8.24107648,22.1992871 12.3928671,22.1992871 C17.8281415,22.1992871 21.4442172,19.0408012 21.4442172,16.5296375 L21.4442172,16.5296375 Z M20.6183234,9.56534344 C19.9821619,8.85105687 19.0335001,8.58319941 18.1629633,8.77293178 C17.80582,8.85105687 17.5826055,9.19703943 17.6607306,9.55418271 C17.7276949,9.911326 18.0848382,10.1345405 18.4419815,10.0564155 C18.8660892,9.96712963 19.323679,10.1010584 19.6361794,10.4470409 C19.9486797,10.7930235 20.0379655,11.261774 19.9040368,11.6858817 C19.7924295,12.0318642 19.9821619,12.4001682 20.3281445,12.5117755 C20.674127,12.6233828 21.042431,12.4336504 21.1540383,12.0876679 C21.4330565,11.2394526 21.2544849,10.2684693 20.6183234,9.56534344 L20.6183234,9.56534344 Z M22.6384151,7.74614484 C21.3214492,6.28408953 19.3906433,5.73721388 17.5937662,6.11667861 C17.1808193,6.20596444 16.9129618,6.60775063 17.0022476,7.02069755 C17.0915335,7.43364447 17.5044804,7.70150193 17.9174273,7.61221611 C19.1897503,7.34435865 20.5625197,7.73498412 21.5000209,8.77293178 C22.437522,9.79971872 22.683058,11.2171311 22.2812718,12.4559719 C22.1585038,12.8577581 22.3817183,13.2818657 22.7835045,13.4157945 C23.1852907,13.5497232 23.6093984,13.3265086 23.7433271,12.9247224 C24.3013635,11.1836489 23.9553809,9.19703943 22.6384151,7.74614484 L22.6384151,7.74614484 Z" id="weibo---FontAwesome" fill="#EC0117"></path>
            </g>
            <g id="Group-4" transform="translate(84.000000, 28.000000)">
                <rect id="Rectangle-57" fill-opacity="0" fill="#000000" x="0" y="0" width="28" height="28"></rect>
                <path d="M7.53125,13.0959821 C5.96428571,14.28125 5,15.7678571 5,17.7767857 C5,18.1484375 5.09040179,18.4497768 5.23102679,18.78125 C5.29129464,18.8013393 5.26116071,18.8816964 5.34151786,18.8816964 L5.3515625,18.8816964 C5.93415179,18.8214286 6.45647321,18.2689732 6.67745536,17.7566964 C6.69754464,17.7064732 6.72767857,17.5558036 6.79799107,17.5558036 L6.84821429,17.5859375 C6.99888393,18.3091518 7.97321429,20.0569196 8.66629464,20.2176339 L8.68638393,20.2477679 C8.68638393,20.2779018 8.67633929,20.2779018 8.66629464,20.2879464 C8.61607143,20.2979911 8.57589286,20.3080357 8.52566964,20.3080357 C8.1640625,20.328125 7.93303571,20.4988839 7.62165179,20.5591518 C7.22991071,20.9207589 7.109375,21.0814732 7.109375,21.6439732 C7.109375,22.9497768 10.0625,23 10.8258929,23 C11.6897321,23 13.1863839,22.8191964 13.7991071,22.1462054 C14.0602679,22.1763393 14.421875,22.1361607 14.6629464,22.2064732 C15.8180804,22.5479911 16.8125,22.8694196 18.0379464,22.8694196 C18.9620536,22.8694196 20.4988839,22.7589286 21.0714286,21.8950893 C21.1517857,21.7845982 21.1316964,21.6640625 21.1819196,21.5535714 C21.0111607,20.5993304 20.0870536,20.6495536 19.5145089,20.0970982 C20.1674107,19.4743304 20.5189732,18.6908482 20.8404018,17.8571429 L20.890625,17.8169643 C20.9006696,17.8169643 20.9107143,17.8169643 20.9207589,17.8270089 C21.0613839,18.0881696 21.4933036,19.0424107 21.8850446,19.0424107 C22.4475446,19.0424107 22.6383929,17.8169643 22.6383929,17.4654018 C22.6383929,15.8783482 21.8549107,14.4921875 20.9910714,13.2165179 C20.9810268,13.1964286 20.9207589,13.1160714 20.9207589,13.0959821 C20.9207589,12.8549107 21.1015625,12.5837054 21.1015625,12.3125 C21.1015625,11.7700893 20.8404018,11.2477679 20.5491071,10.8058036 L20.5390625,10.7555804 C20.0368304,8.39508929 19.5044643,6.546875 17.1439732,5.55245536 C16.3203125,5.2109375 15.3560268,5 14.4720982,5 C13.3370536,5 12.2522321,5.17075893 11.2176339,5.66294643 C9.54017857,6.46651786 8.10379464,8.80691964 8.10379464,10.6651786 C7.90290179,10.8359375 7.79241071,11.3683036 7.80245536,11.6294643 C7.63169643,11.8404018 7.45089286,12.2924107 7.45089286,12.5736607 C7.45089286,12.7544643 7.4609375,12.9252232 7.53125,13.0959821 L7.53125,13.0959821 Z" id="qq---FontAwesome" fill="#0098E6"></path>
            </g>
            <g id="Group-6" transform="translate(140.000000, 28.000000)">
                <rect id="Rectangle-63" fill-opacity="0" fill="#000000" x="0" y="0" width="28" height="28"></rect>
                <path d="M19.3846154,4.14423077 C19.0600962,4.09615385 17.9423077,4 16.6442308,4 C13.9278846,4 12.0649038,5.65865385 12.0649038,8.69951923 L12.0649038,11.3197115 L9,11.3197115 L9,14.8774038 L12.0649038,14.8774038 L12.0649038,24 L15.7427885,24 L15.7427885,14.8774038 L18.7956731,14.8774038 L19.2644231,11.3197115 L15.7427885,11.3197115 L15.7427885,9.04807692 C15.7427885,8.02644231 16.0192308,7.31730769 17.4975962,7.31730769 L19.3846154,7.31730769 L19.3846154,4.14423077 Z" id="facebook---FontAwesome" fill="#4862A3"></path>
            </g>
            <g id="Group-8" transform="translate(196.000000, 28.000000)">
                <rect id="Rectangle-56" fill-opacity="0" fill="#000000" x="0" y="0" width="28" height="28"></rect>
                <path d="M16.7611712,10.3839362 C16.7611712,9.18973833 15.7901879,8.22991576 14.6071507,8.22991576 C13.4129529,8.22991576 12.4531303,9.18973833 12.4531303,10.3839362 C12.4531303,10.6852758 12.5089339,10.9754547 12.6317019,11.2433122 C12.1629514,11.7343842 11.6607186,12.3370635 11.1584859,13.0848323 C9.78571641,15.1272454 8.23437528,18.587071 8.66964366,23.4754696 C8.70312584,23.7768093 8.95982257,24.0000238 9.25000149,24.0000238 L9.30580513,24.0000238 C9.6183055,23.9665417 9.85268078,23.6875235 9.83035932,23.3638624 C9.4955375,19.7366259 10.2656277,16.5111756 12.0848263,13.7767974 C12.5200947,13.1294752 12.9665238,12.5825995 13.36831,12.1473311 C13.7254533,12.3928671 14.1495609,12.5379566 14.6071507,12.5379566 C15.7901879,12.5379566 16.7611712,11.5669733 16.7611712,10.3839362 L16.7611712,10.3839362 Z M21.0134084,10.5067042 C21.0134084,6.9129499 18.1004585,4 14.5067042,4 C10.9241106,4 8,6.9129499 8,10.5067042 C8,11.5334911 8.24553601,12.5602781 8.71428657,13.464297 C8.85937602,13.7544759 9.20535858,13.8660832 9.4955375,13.7209937 C9.77455569,13.5759043 9.88616296,13.2299217 9.7410735,12.9397428 C9.36160877,12.1808133 9.16071567,11.3660802 9.16071567,10.5067042 C9.16071567,7.5602721 11.5602721,5.16071567 14.5067042,5.16071567 C17.4531363,5.16071567 19.8526927,7.5602721 19.8526927,10.5067042 C19.8526927,13.4531363 17.4531363,15.8526927 14.5067042,15.8526927 C14.104918,15.8526927 13.6919711,15.8080498 13.3013456,15.7076032 C12.9888452,15.6406389 12.6875056,15.841532 12.6093805,16.1428716 C12.5424161,16.455372 12.7321485,16.7678724 13.0446489,16.8459975 C13.5245602,16.946444 14.0156322,17.0022476 14.5067042,17.0022476 C18.1004585,17.0022476 21.0134084,14.0892977 21.0134084,10.5067042 L21.0134084,10.5067042 Z" id="tencent-weibo---FontAwesome" fill="#0D9DD4"></path>
            </g>
            <g id="Group-10" transform="translate(252.000000, 28.000000)">
                <rect id="Rectangle-61" fill-opacity="0" fill="#000000" x="0" y="0" width="28" height="28"></rect>
                <path d="M9.23046875,9.3057554 C9.23046875,9.88848921 8.84375,10.2769784 8.25292969,10.2769784 C7.67285156,10.2769784 7.08203125,9.88848921 7.08203125,9.3057554 C7.08203125,8.71223022 7.67285156,8.32374101 8.25292969,8.32374101 C8.84375,8.32374101 9.23046875,8.71223022 9.23046875,9.3057554 L9.23046875,9.3057554 Z M17.2119141,14.7769784 C17.2119141,15.176259 16.8251953,15.5647482 16.234375,15.5647482 C15.8476562,15.5647482 15.4609375,15.176259 15.4609375,14.7769784 C15.4609375,14.3884892 15.8476562,14 16.234375,14 C16.8251953,14 17.2119141,14.3884892 17.2119141,14.7769784 L17.2119141,14.7769784 Z M14.6767578,9.3057554 C14.6767578,9.88848921 14.2900391,10.2769784 13.7099609,10.2769784 C13.1191406,10.2769784 12.5390625,9.88848921 12.5390625,9.3057554 C12.5390625,8.71223022 13.1191406,8.32374101 13.7099609,8.32374101 C14.2900391,8.32374101 14.6767578,8.71223022 14.6767578,9.3057554 L14.6767578,9.3057554 Z M21.4980469,14.7769784 C21.4980469,15.176259 21.1005859,15.5647482 20.5205078,15.5647482 C20.1337891,15.5647482 19.7470703,15.176259 19.7470703,14.7769784 C19.7470703,14.3884892 20.1337891,14 20.5205078,14 C21.1005859,14 21.4980469,14.3884892 21.4980469,14.7769784 L21.4980469,14.7769784 Z M18.640625,10.4928058 C17.9746094,7.34172662 14.6123047,5 10.7880859,5 C6.50195312,5 3,7.92446043 3,11.647482 C3,13.794964 4.17089844,15.5647482 6.11523438,16.9352518 L5.34179688,19.2877698 L8.05957031,17.9172662 C9.03710938,18.1115108 9.81054688,18.3057554 10.7880859,18.3057554 C11.0351562,18.3057554 11.2714844,18.294964 11.5185547,18.2733813 C11.3574219,17.7553957 11.2714844,17.205036 11.2714844,16.6330935 C11.2714844,13.2230216 14.1933594,10.4496403 17.8886719,10.4496403 C18.1464844,10.4496403 18.3935547,10.4604317 18.640625,10.4928058 L18.640625,10.4928058 Z M25,16.5467626 C25,13.4172662 21.8847656,10.8705036 18.3828125,10.8705036 C14.6767578,10.8705036 11.765625,13.4172662 11.765625,16.5467626 C11.765625,19.676259 14.6767578,22.2230216 18.3828125,22.2230216 C19.15625,22.2230216 19.9404297,22.0179856 20.7246094,21.823741 L22.8623047,23 L22.2714844,21.0467626 C23.8398438,19.8705036 25,18.3057554 25,16.5467626 L25,16.5467626 Z" id="weixin---FontAwesome" fill="#00B500"></path>
            </g>
            <g id="Group-25" transform="translate(308.000000, 0.000000)">
                <rect id="Rectangle-34-Copy" x="0" y="0" width="28" height="28"></rect>
                <path d="M14,5 C9.03125,5 5,9.03125 5,14 C5,18.96875 9.03125,23 14,23 C18.96875,23 23,18.96875 23,14 C23,9.03125 18.96875,5 14,5 L14,5 Z M17.2109375,11.1054688 C17.3398438,11.0234375 17.5507812,10.9179688 17.7148438,10.9648438 C17.84375,11 17.9492188,11.046875 17.796875,11.1523438 C17.7265625,11.1992188 17.6210938,11.1523438 17.5390625,11.1757813 C17.6445312,11.1992188 17.796875,11.2460938 17.75,11.3515625 C18.0546875,11.5273438 17.65625,11.7382813 17.4570312,11.7148438 C17.5507812,11.7265625 17.2578125,11.9023438 17.2578125,11.890625 C17.1523438,11.9492188 17.0117188,11.9492188 16.9296875,12.0546875 C16.8359375,12.1835938 16.9648438,12.40625 16.7890625,12.359375 C16.71875,12.5117188 16.4492188,12.4296875 16.3320312,12.59375 C16.4609375,12.734375 16.203125,12.9335938 16.0742188,12.7578125 C15.9570312,12.8046875 16.015625,12.9335938 15.8984375,13.0039063 C15.9453125,13.0742188 15.9570312,13.1445312 15.875,13.1914062 C15.8984375,13.1796875 16.0390625,13.296875 16.0742188,13.3085938 C16.0507812,13.3671875 16.0039062,13.4140625 15.9453125,13.4140625 C16.0039062,13.5664062 15.875,13.7304688 15.7695312,13.8242188 C15.6523438,13.9179688 15.3828125,14.0117188 15.3476562,14.0351562 C15.1367188,14.234375 14.9960938,14.5273438 15.3710938,14.609375 C15.3828125,14.609375 15.3828125,14.9960938 15.3945312,15.0078125 C15.4179688,15.1484375 15.4765625,15.5585938 15.2304688,15.40625 C15.1132812,15.3476562 15.0429688,15.0195312 15.0078125,14.890625 C14.9726562,14.75 14.9609375,14.75 14.8671875,14.609375 C14.7148438,14.7851562 14.6914062,14.65625 14.5625,14.5742188 C14.4335938,14.5039062 14.2460938,14.5273438 14.1757812,14.4570312 C14,14.5859375 13.8710938,14.5507812 13.8359375,14.3515625 C13.7890625,14.4453125 13.8828125,14.5859375 13.8710938,14.6210938 C13.8125,14.7382812 13.7070312,14.7148438 13.6132812,14.6445312 C13.4609375,14.5273438 13.1328125,14.7265625 12.9570312,14.6445312 C12.96875,14.6445312 13.015625,14.6914062 13.0507812,14.7148438 C13.015625,14.8554688 12.9335938,14.7734375 12.8632812,14.8203125 C12.78125,14.8789062 12.7109375,14.9960938 12.640625,15.0546875 C12.7929688,15.3476562 12.6289062,15.6289062 12.640625,15.9453125 C12.640625,16.1796875 12.7929688,16.5898438 13.015625,16.71875 C13.1210938,16.7773438 13.4726562,16.8007812 13.578125,16.7539062 C13.7421875,16.6835938 13.71875,16.5546875 13.7773438,16.4140625 C13.8359375,16.2617188 13.90625,16.1914062 14.0820312,16.1796875 C14.5859375,16.15625 14.1992188,16.5664062 14.140625,16.7773438 C14.1054688,16.9296875 14.09375,17.1054688 14.0703125,17.2460938 C14.1289062,17.2695312 14.1875,17.2578125 14.2460938,17.2578125 C14.2460938,17.2109375 14.28125,17.1523438 14.28125,17.1171875 C14.3515625,17.234375 14.5859375,17.2695312 14.65625,17.1289062 C14.7382812,17.2695312 14.9023438,17.375 14.9257812,17.5390625 C14.9492188,17.703125 15.1015625,17.8789062 14.8789062,17.8789062 C14.7148438,17.8789062 14.9023438,18.2070312 14.9257812,18.265625 C15.0546875,18.5 15.265625,18.59375 15.5,18.4765625 C15.5,18.5703125 15.4648438,18.828125 15.3359375,18.8515625 C15.21875,18.875 14.9960938,18.6289062 15.0429688,18.5 C15.03125,18.546875 14.9960938,18.5820312 14.9609375,18.6054688 C14.84375,18.4648438 14.6445312,18.3945312 14.5390625,18.2539062 C14.515625,18.21875 14.1992188,17.7382812 14.2695312,17.7148438 C14.1054688,17.7851562 13.7773438,17.6679688 13.625,17.5859375 C13.3789062,17.4570312 13.34375,17.1171875 13.0390625,17.1640625 C12.828125,17.1992188 12.7695312,17.28125 12.5234375,17.1875 C12.359375,17.1289062 12.21875,17.0117188 12.0546875,16.9296875 C11.8671875,16.8242188 11.5390625,16.71875 11.46875,16.484375 C11.3984375,16.296875 11.421875,16.0742188 11.3164062,15.8984375 C11.2460938,15.78125 11.0351562,15.546875 10.8828125,15.546875 C11.0234375,15.546875 10.7539062,15.1953125 10.71875,15.1601562 C10.5898438,15.0078125 10.1210938,14.5976562 10.2148438,14.3632812 C10.2382812,14.328125 9.98046875,14.234375 9.93359375,14.2226562 C9.98046875,14.3398438 9.9921875,14.46875 10.0507812,14.5742188 C10.109375,14.6914062 10.1796875,14.796875 10.25,14.9140625 C10.3789062,15.125 10.5546875,15.3828125 10.53125,15.640625 C10.3789062,15.6875 10.4257812,15.4648438 10.3789062,15.3710938 C10.296875,15.21875 10.0742188,15.21875 10.015625,15.0546875 C10.0390625,15.0429688 10.0507812,15.0429688 10.0742188,15.03125 C10.0859375,14.8320312 9.79296875,14.6679688 9.83984375,14.5273438 C9.67578125,14.3984375 9.67578125,14.1523438 9.55859375,13.9882812 C9.453125,13.8359375 9.27734375,13.765625 9.125,13.6601562 C9.06640625,13.625 8.64453125,13.0859375 8.796875,13.0507813 C8.5625,13.109375 8.4453125,12.5585938 8.48046875,12.4179688 C8.48046875,12.4179688 8.45703125,12.4179688 8.45703125,12.40625 C8.50390625,12.265625 8.421875,11.5390625 8.609375,11.5273438 C8.48046875,11.5390625 8.4453125,11.2226563 8.48046875,11.1640625 C8.50390625,11.1171875 8.6796875,11.2929688 8.69140625,11.3164063 C8.76171875,11.28125 8.83203125,11.1875 8.80859375,11.1054688 C8.7734375,11.0117188 8.64453125,10.9296875 8.5625,10.859375 C8.52734375,10.8359375 8.05859375,10.53125 8.046875,10.5429688 C8.09375,10.4609375 8.08203125,10.3789063 8.01171875,10.3203125 C7.7890625,10.4960938 7.90625,10.15625 7.7890625,10.1210938 C7.7421875,10.109375 7.6953125,10.0742188 7.6484375,10.0273438 C8.328125,8.94921875 9.27734375,8.046875 10.4023438,7.42578125 C10.4726562,7.4140625 10.5664062,7.4140625 10.6601562,7.4140625 C10.8710938,7.4375 10.9882812,7.61328125 11.140625,7.71875 C11.1640625,7.66015625 11.1171875,7.56640625 11.0820312,7.5078125 C11.1171875,7.4140625 11.2578125,7.390625 11.3398438,7.3671875 C11.4453125,7.35546875 11.5976562,7.33203125 11.6914062,7.37890625 C11.6210938,7.2734375 11.5390625,7.1796875 11.4570312,7.0859375 C11.4453125,7.09765625 11.4101562,7.12109375 11.3984375,7.14453125 C11.2695312,7.0390625 11.0234375,7.1796875 10.90625,7.2265625 C10.8125,7.2734375 10.7304688,7.33203125 10.6367188,7.3671875 C10.578125,7.390625 10.5429688,7.390625 10.4960938,7.37890625 C10.8476562,7.19140625 11.2109375,7.02734375 11.5976562,6.8984375 C11.6679688,6.9453125 11.7382812,7.02734375 11.84375,7.109375 C11.7734375,7.05078125 11.7734375,7.3203125 11.796875,7.3671875 C11.9257812,7.54296875 12.2070312,7.42578125 12.3828125,7.42578125 C12.3710938,7.42578125 12.8984375,7.49609375 12.7929688,7.3671875 C12.875,7.484375 12.875,7.66015625 12.9804688,7.765625 C13.0859375,7.66015625 12.9335938,7.54296875 13.0039062,7.4375 C13.0273438,7.390625 13.2382812,7.33203125 13.3085938,7.296875 C13.390625,7.23828125 13.25,7.15625 13.2148438,7.1328125 C13.0976562,7.0625 12.640625,7.02734375 12.8632812,6.7578125 C12.9453125,6.6640625 13.2382812,6.7109375 13.3320312,6.76953125 C13.4609375,6.83984375 13.6015625,6.96875 13.4257812,7.0859375 C13.5078125,7.09765625 13.8945312,7.203125 13.8359375,7.35546875 C13.8710938,7.28515625 13.9296875,7.1796875 14.0234375,7.1796875 C14.1289062,7.19140625 14.1523438,7.4375 14.1992188,7.49609375 C14.3632812,7.7890625 14.6445312,7.203125 14.6914062,7.2265625 C14.4804688,7.14453125 14.8789062,7.0390625 14.984375,7.07421875 C15.0664062,7.109375 15.1953125,7.390625 15.0429688,7.37890625 C15.171875,7.49609375 15.1835938,7.75390625 14.9492188,7.7421875 C14.7851562,7.73046875 14.5976562,7.5078125 14.4453125,7.68359375 C14.3398438,7.80078125 14.2929688,7.9765625 14.1875,8.08203125 C14.0234375,8.24609375 13.8007812,8.234375 13.6015625,8.2109375 C13.6835938,8.22265625 13.4257812,8.4921875 13.4023438,8.5390625 C13.3320312,8.62109375 13.2851562,8.71484375 13.2617188,8.80859375 C13.2382812,8.92578125 13.2617188,9.0546875 13.203125,9.171875 C13.4023438,9.11328125 13.5078125,9.4765625 13.4257812,9.48828125 C13.671875,9.453125 13.8710938,9.453125 14.1054688,9.53515625 C14.2695312,9.59375 14.515625,9.6640625 14.5859375,9.83984375 C14.6328125,9.76953125 14.8554688,9.8046875 14.9257812,9.828125 C15.0664062,9.8984375 15.078125,10.0507813 15.1132812,10.1796875 C15.1601562,10.3554688 15.3125,10.6484375 15.5117188,10.5546875 C15.546875,10.53125 15.8046875,10.4140625 15.7109375,10.34375 C15.6171875,10.2617188 15.5117188,10.0507813 15.6054688,9.93359375 C15.6992188,9.8046875 15.921875,9.76953125 15.9804688,9.60546875 C16.0742188,9.3359375 15.6992188,9.37109375 15.6992188,9.171875 C15.6992188,9.0546875 15.8515625,9.01953125 15.8398438,8.87890625 C15.8398438,8.76171875 15.6640625,8.52734375 15.8046875,8.4453125 C15.921875,8.375 16.484375,8.4921875 16.5898438,8.5625 C16.6953125,8.6328125 17.0234375,8.7265625 17.046875,8.83203125 L16.9882812,8.83203125 C17.0820312,8.9140625 17.1640625,9.08984375 17,9.13671875 C17.1054688,9.11328125 17.4101562,9.23046875 17.1992188,9.30078125 C17.2695312,9.265625 17.328125,9.2890625 17.3984375,9.2421875 C17.4804688,9.1953125 17.5273438,9.11328125 17.6328125,9.171875 C17.65625,9.18359375 17.7851562,8.92578125 17.8554688,8.9375 C17.9609375,8.94921875 17.984375,9.1015625 18.03125,9.171875 C18.078125,9.27734375 18.2070312,9.3125 18.2539062,9.41796875 C18.3359375,9.6171875 18.3007812,9.8046875 18.5703125,9.875 C18.6523438,9.8984375 18.875,9.76953125 18.8632812,9.9453125 C18.9101562,9.8984375 18.9335938,9.86328125 18.9335938,9.8515625 C18.9453125,10.015625 19.015625,10.203125 19.2148438,10.1796875 C19.2148438,10.1796875 19.2148438,10.4023438 19.1914062,10.4375 C19.1210938,10.5429688 18.9453125,10.5195313 18.8398438,10.578125 C18.8046875,10.5898438 18.5234375,10.8359375 18.5585938,10.8710938 C18.40625,10.6953125 18.1601562,10.6953125 17.9609375,10.7421875 C17.75,10.7773438 17.5507812,10.8007813 17.3515625,10.8828125 C17.2578125,10.9296875 17.1640625,10.9765625 17.09375,11.0585938 C17.0585938,11.1054688 17,11.3164063 16.9414062,11.328125 C17.0585938,11.3046875 17.1171875,11.1757813 17.2109375,11.1054688 L17.2109375,11.1054688 Z M15.3007812,21.3828125 C15.2890625,21.3242188 15.2773437,21.2070312 15.2773437,21.1953125 C15.265625,21.0078125 15.4648437,20.8789062 15.453125,20.703125 C15.3242187,20.6679688 15.2890625,20.5390625 15.3125,20.3984375 C15.3359375,20.1992188 15.5117187,20.0585938 15.6523437,19.9296875 C15.7929687,19.8007812 15.828125,19.53125 15.7929687,19.3671875 C15.734375,19.0859375 15.734375,18.7929688 15.6875,18.5117188 C15.6992187,18.5820312 15.8984375,18.5585938 15.9335937,18.6523438 C15.9804687,18.5703125 16.0039062,18.4648438 16.0625,18.3828125 C16.109375,18.3125 16.1914062,18.2890625 16.2617188,18.2304688 C16.3789062,18.1601562 16.625,17.890625 16.765625,18.0546875 C16.8828125,18.1953125 16.5898438,18.3476562 16.7421875,18.4765625 C16.7890625,18.3828125 16.7421875,18.2421875 16.8359375,18.1484375 C17.0234375,17.9375 17.1523438,18.171875 17.3398438,18.2304688 C17.5390625,18.2890625 17.609375,18.359375 17.7617188,18.4882812 C17.7148438,18.4414062 17.9492188,18.359375 17.9726562,18.3476562 C18.1953125,18.3007812 18.2890625,18.4296875 18.4414062,18.546875 C18.6054688,18.6640625 18.8632812,18.7460938 18.8398438,18.9804688 C18.9570312,19.0039062 19.0273438,19.0390625 19.1210938,19.0742188 C19.2148438,19.1210938 19.34375,19.0976562 19.4140625,19.1679688 C18.3359375,20.3046875 16.90625,21.1015625 15.3007812,21.3828125 L15.3007812,21.3828125 Z" id="globe---FontAwesome" fill="#FFFFFF"></path>
            </g>
            <g id="Group-12" transform="translate(308.000000, 28.000000)">
                <rect id="Rectangle-34-Copy-2" fill-opacity="0" fill="#000000" x="0" y="0" width="28" height="28"></rect>
                <path d="M14,5 C9.03125,5 5,9.03125 5,14 C5,18.96875 9.03125,23 14,23 C18.96875,23 23,18.96875 23,14 C23,9.03125 18.96875,5 14,5 L14,5 Z M17.2109375,11.1054688 C17.3398438,11.0234375 17.5507812,10.9179688 17.7148438,10.9648438 C17.84375,11 17.9492188,11.046875 17.796875,11.1523438 C17.7265625,11.1992188 17.6210938,11.1523438 17.5390625,11.1757813 C17.6445312,11.1992188 17.796875,11.2460938 17.75,11.3515625 C18.0546875,11.5273438 17.65625,11.7382813 17.4570312,11.7148438 C17.5507812,11.7265625 17.2578125,11.9023438 17.2578125,11.890625 C17.1523438,11.9492188 17.0117188,11.9492188 16.9296875,12.0546875 C16.8359375,12.1835938 16.9648438,12.40625 16.7890625,12.359375 C16.71875,12.5117188 16.4492188,12.4296875 16.3320312,12.59375 C16.4609375,12.734375 16.203125,12.9335938 16.0742188,12.7578125 C15.9570312,12.8046875 16.015625,12.9335938 15.8984375,13.0039063 C15.9453125,13.0742188 15.9570312,13.1445312 15.875,13.1914062 C15.8984375,13.1796875 16.0390625,13.296875 16.0742188,13.3085938 C16.0507812,13.3671875 16.0039062,13.4140625 15.9453125,13.4140625 C16.0039062,13.5664062 15.875,13.7304688 15.7695312,13.8242188 C15.6523438,13.9179688 15.3828125,14.0117188 15.3476562,14.0351562 C15.1367188,14.234375 14.9960938,14.5273438 15.3710938,14.609375 C15.3828125,14.609375 15.3828125,14.9960938 15.3945312,15.0078125 C15.4179688,15.1484375 15.4765625,15.5585938 15.2304688,15.40625 C15.1132812,15.3476562 15.0429688,15.0195312 15.0078125,14.890625 C14.9726562,14.75 14.9609375,14.75 14.8671875,14.609375 C14.7148438,14.7851562 14.6914062,14.65625 14.5625,14.5742188 C14.4335938,14.5039062 14.2460938,14.5273438 14.1757812,14.4570312 C14,14.5859375 13.8710938,14.5507812 13.8359375,14.3515625 C13.7890625,14.4453125 13.8828125,14.5859375 13.8710938,14.6210938 C13.8125,14.7382812 13.7070312,14.7148438 13.6132812,14.6445312 C13.4609375,14.5273438 13.1328125,14.7265625 12.9570312,14.6445312 C12.96875,14.6445312 13.015625,14.6914062 13.0507812,14.7148438 C13.015625,14.8554688 12.9335938,14.7734375 12.8632812,14.8203125 C12.78125,14.8789062 12.7109375,14.9960938 12.640625,15.0546875 C12.7929688,15.3476562 12.6289062,15.6289062 12.640625,15.9453125 C12.640625,16.1796875 12.7929688,16.5898438 13.015625,16.71875 C13.1210938,16.7773438 13.4726562,16.8007812 13.578125,16.7539062 C13.7421875,16.6835938 13.71875,16.5546875 13.7773438,16.4140625 C13.8359375,16.2617188 13.90625,16.1914062 14.0820312,16.1796875 C14.5859375,16.15625 14.1992188,16.5664062 14.140625,16.7773438 C14.1054688,16.9296875 14.09375,17.1054688 14.0703125,17.2460938 C14.1289062,17.2695312 14.1875,17.2578125 14.2460938,17.2578125 C14.2460938,17.2109375 14.28125,17.1523438 14.28125,17.1171875 C14.3515625,17.234375 14.5859375,17.2695312 14.65625,17.1289062 C14.7382812,17.2695312 14.9023438,17.375 14.9257812,17.5390625 C14.9492188,17.703125 15.1015625,17.8789062 14.8789062,17.8789062 C14.7148438,17.8789062 14.9023438,18.2070312 14.9257812,18.265625 C15.0546875,18.5 15.265625,18.59375 15.5,18.4765625 C15.5,18.5703125 15.4648438,18.828125 15.3359375,18.8515625 C15.21875,18.875 14.9960938,18.6289062 15.0429688,18.5 C15.03125,18.546875 14.9960938,18.5820312 14.9609375,18.6054688 C14.84375,18.4648438 14.6445312,18.3945312 14.5390625,18.2539062 C14.515625,18.21875 14.1992188,17.7382812 14.2695312,17.7148438 C14.1054688,17.7851562 13.7773438,17.6679688 13.625,17.5859375 C13.3789062,17.4570312 13.34375,17.1171875 13.0390625,17.1640625 C12.828125,17.1992188 12.7695312,17.28125 12.5234375,17.1875 C12.359375,17.1289062 12.21875,17.0117188 12.0546875,16.9296875 C11.8671875,16.8242188 11.5390625,16.71875 11.46875,16.484375 C11.3984375,16.296875 11.421875,16.0742188 11.3164062,15.8984375 C11.2460938,15.78125 11.0351562,15.546875 10.8828125,15.546875 C11.0234375,15.546875 10.7539062,15.1953125 10.71875,15.1601562 C10.5898438,15.0078125 10.1210938,14.5976562 10.2148438,14.3632812 C10.2382812,14.328125 9.98046875,14.234375 9.93359375,14.2226562 C9.98046875,14.3398438 9.9921875,14.46875 10.0507812,14.5742188 C10.109375,14.6914062 10.1796875,14.796875 10.25,14.9140625 C10.3789062,15.125 10.5546875,15.3828125 10.53125,15.640625 C10.3789062,15.6875 10.4257812,15.4648438 10.3789062,15.3710938 C10.296875,15.21875 10.0742188,15.21875 10.015625,15.0546875 C10.0390625,15.0429688 10.0507812,15.0429688 10.0742188,15.03125 C10.0859375,14.8320312 9.79296875,14.6679688 9.83984375,14.5273438 C9.67578125,14.3984375 9.67578125,14.1523438 9.55859375,13.9882812 C9.453125,13.8359375 9.27734375,13.765625 9.125,13.6601562 C9.06640625,13.625 8.64453125,13.0859375 8.796875,13.0507813 C8.5625,13.109375 8.4453125,12.5585938 8.48046875,12.4179688 C8.48046875,12.4179688 8.45703125,12.4179688 8.45703125,12.40625 C8.50390625,12.265625 8.421875,11.5390625 8.609375,11.5273438 C8.48046875,11.5390625 8.4453125,11.2226563 8.48046875,11.1640625 C8.50390625,11.1171875 8.6796875,11.2929688 8.69140625,11.3164063 C8.76171875,11.28125 8.83203125,11.1875 8.80859375,11.1054688 C8.7734375,11.0117188 8.64453125,10.9296875 8.5625,10.859375 C8.52734375,10.8359375 8.05859375,10.53125 8.046875,10.5429688 C8.09375,10.4609375 8.08203125,10.3789063 8.01171875,10.3203125 C7.7890625,10.4960938 7.90625,10.15625 7.7890625,10.1210938 C7.7421875,10.109375 7.6953125,10.0742188 7.6484375,10.0273438 C8.328125,8.94921875 9.27734375,8.046875 10.4023438,7.42578125 C10.4726562,7.4140625 10.5664062,7.4140625 10.6601562,7.4140625 C10.8710938,7.4375 10.9882812,7.61328125 11.140625,7.71875 C11.1640625,7.66015625 11.1171875,7.56640625 11.0820312,7.5078125 C11.1171875,7.4140625 11.2578125,7.390625 11.3398438,7.3671875 C11.4453125,7.35546875 11.5976562,7.33203125 11.6914062,7.37890625 C11.6210938,7.2734375 11.5390625,7.1796875 11.4570312,7.0859375 C11.4453125,7.09765625 11.4101562,7.12109375 11.3984375,7.14453125 C11.2695312,7.0390625 11.0234375,7.1796875 10.90625,7.2265625 C10.8125,7.2734375 10.7304688,7.33203125 10.6367188,7.3671875 C10.578125,7.390625 10.5429688,7.390625 10.4960938,7.37890625 C10.8476562,7.19140625 11.2109375,7.02734375 11.5976562,6.8984375 C11.6679688,6.9453125 11.7382812,7.02734375 11.84375,7.109375 C11.7734375,7.05078125 11.7734375,7.3203125 11.796875,7.3671875 C11.9257812,7.54296875 12.2070312,7.42578125 12.3828125,7.42578125 C12.3710938,7.42578125 12.8984375,7.49609375 12.7929688,7.3671875 C12.875,7.484375 12.875,7.66015625 12.9804688,7.765625 C13.0859375,7.66015625 12.9335938,7.54296875 13.0039062,7.4375 C13.0273438,7.390625 13.2382812,7.33203125 13.3085938,7.296875 C13.390625,7.23828125 13.25,7.15625 13.2148438,7.1328125 C13.0976562,7.0625 12.640625,7.02734375 12.8632812,6.7578125 C12.9453125,6.6640625 13.2382812,6.7109375 13.3320312,6.76953125 C13.4609375,6.83984375 13.6015625,6.96875 13.4257812,7.0859375 C13.5078125,7.09765625 13.8945312,7.203125 13.8359375,7.35546875 C13.8710938,7.28515625 13.9296875,7.1796875 14.0234375,7.1796875 C14.1289062,7.19140625 14.1523438,7.4375 14.1992188,7.49609375 C14.3632812,7.7890625 14.6445312,7.203125 14.6914062,7.2265625 C14.4804688,7.14453125 14.8789062,7.0390625 14.984375,7.07421875 C15.0664062,7.109375 15.1953125,7.390625 15.0429688,7.37890625 C15.171875,7.49609375 15.1835938,7.75390625 14.9492188,7.7421875 C14.7851562,7.73046875 14.5976562,7.5078125 14.4453125,7.68359375 C14.3398438,7.80078125 14.2929688,7.9765625 14.1875,8.08203125 C14.0234375,8.24609375 13.8007812,8.234375 13.6015625,8.2109375 C13.6835938,8.22265625 13.4257812,8.4921875 13.4023438,8.5390625 C13.3320312,8.62109375 13.2851562,8.71484375 13.2617188,8.80859375 C13.2382812,8.92578125 13.2617188,9.0546875 13.203125,9.171875 C13.4023438,9.11328125 13.5078125,9.4765625 13.4257812,9.48828125 C13.671875,9.453125 13.8710938,9.453125 14.1054688,9.53515625 C14.2695312,9.59375 14.515625,9.6640625 14.5859375,9.83984375 C14.6328125,9.76953125 14.8554688,9.8046875 14.9257812,9.828125 C15.0664062,9.8984375 15.078125,10.0507813 15.1132812,10.1796875 C15.1601562,10.3554688 15.3125,10.6484375 15.5117188,10.5546875 C15.546875,10.53125 15.8046875,10.4140625 15.7109375,10.34375 C15.6171875,10.2617188 15.5117188,10.0507813 15.6054688,9.93359375 C15.6992188,9.8046875 15.921875,9.76953125 15.9804688,9.60546875 C16.0742188,9.3359375 15.6992188,9.37109375 15.6992188,9.171875 C15.6992188,9.0546875 15.8515625,9.01953125 15.8398438,8.87890625 C15.8398438,8.76171875 15.6640625,8.52734375 15.8046875,8.4453125 C15.921875,8.375 16.484375,8.4921875 16.5898438,8.5625 C16.6953125,8.6328125 17.0234375,8.7265625 17.046875,8.83203125 L16.9882812,8.83203125 C17.0820312,8.9140625 17.1640625,9.08984375 17,9.13671875 C17.1054688,9.11328125 17.4101562,9.23046875 17.1992188,9.30078125 C17.2695312,9.265625 17.328125,9.2890625 17.3984375,9.2421875 C17.4804688,9.1953125 17.5273438,9.11328125 17.6328125,9.171875 C17.65625,9.18359375 17.7851562,8.92578125 17.8554688,8.9375 C17.9609375,8.94921875 17.984375,9.1015625 18.03125,9.171875 C18.078125,9.27734375 18.2070312,9.3125 18.2539062,9.41796875 C18.3359375,9.6171875 18.3007812,9.8046875 18.5703125,9.875 C18.6523438,9.8984375 18.875,9.76953125 18.8632812,9.9453125 C18.9101562,9.8984375 18.9335938,9.86328125 18.9335938,9.8515625 C18.9453125,10.015625 19.015625,10.203125 19.2148438,10.1796875 C19.2148438,10.1796875 19.2148438,10.4023438 19.1914062,10.4375 C19.1210938,10.5429688 18.9453125,10.5195313 18.8398438,10.578125 C18.8046875,10.5898438 18.5234375,10.8359375 18.5585938,10.8710938 C18.40625,10.6953125 18.1601562,10.6953125 17.9609375,10.7421875 C17.75,10.7773438 17.5507812,10.8007813 17.3515625,10.8828125 C17.2578125,10.9296875 17.1640625,10.9765625 17.09375,11.0585938 C17.0585938,11.1054688 17,11.3164063 16.9414062,11.328125 C17.0585938,11.3046875 17.1171875,11.1757813 17.2109375,11.1054688 L17.2109375,11.1054688 Z M15.3007812,21.3828125 C15.2890625,21.3242188 15.2773437,21.2070312 15.2773437,21.1953125 C15.265625,21.0078125 15.4648437,20.8789062 15.453125,20.703125 C15.3242187,20.6679688 15.2890625,20.5390625 15.3125,20.3984375 C15.3359375,20.1992188 15.5117187,20.0585938 15.6523437,19.9296875 C15.7929687,19.8007812 15.828125,19.53125 15.7929687,19.3671875 C15.734375,19.0859375 15.734375,18.7929688 15.6875,18.5117188 C15.6992187,18.5820312 15.8984375,18.5585938 15.9335937,18.6523438 C15.9804687,18.5703125 16.0039062,18.4648438 16.0625,18.3828125 C16.109375,18.3125 16.1914062,18.2890625 16.2617188,18.2304688 C16.3789062,18.1601562 16.625,17.890625 16.765625,18.0546875 C16.8828125,18.1953125 16.5898438,18.3476562 16.7421875,18.4765625 C16.7890625,18.3828125 16.7421875,18.2421875 16.8359375,18.1484375 C17.0234375,17.9375 17.1523438,18.171875 17.3398438,18.2304688 C17.5390625,18.2890625 17.609375,18.359375 17.7617188,18.4882812 C17.7148438,18.4414062 17.9492188,18.359375 17.9726562,18.3476562 C18.1953125,18.3007812 18.2890625,18.4296875 18.4414062,18.546875 C18.6054688,18.6640625 18.8632812,18.7460938 18.8398438,18.9804688 C18.9570312,19.0039062 19.0273438,19.0390625 19.1210938,19.0742188 C19.2148438,19.1210938 19.34375,19.0976562 19.4140625,19.1679688 C18.3359375,20.3046875 16.90625,21.1015625 15.3007812,21.3828125 L15.3007812,21.3828125 Z" id="globe---FontAwesome-Copy" fill="#4A90E2"></path>
            </g>
            <g id="Group-26" transform="translate(336.000000, 0.000000)">
                <rect id="Rectangle-34-Copy-3" x="0" y="0" width="28" height="28"></rect>
                <path d="M9.08984375,10.523842 L5.22265625,10.523842 L5.22265625,22 L9.08984375,22 L9.08984375,10.523842 Z M9.3359375,6.98024523 C9.32421875,5.85694823 8.50390625,5 7.1796875,5 C5.8671875,5 5,5.85694823 5,6.98024523 C5,8.08038147 5.83203125,8.96049046 7.1328125,8.96049046 L7.15625,8.96049046 C8.50390625,8.96049046 9.34765625,8.08038147 9.3359375,6.98024523 L9.3359375,6.98024523 Z M23,15.4223433 C23,11.9019074 21.1015625,10.2574932 18.5585938,10.2574932 C16.4726562,10.2574932 15.5585938,11.403951 15.0546875,12.1914169 L15.078125,12.1914169 L15.078125,10.523842 L11.2226562,10.523842 C11.2226562,10.523842 11.2695312,11.6008174 11.2226562,22 L15.078125,22 L15.078125,15.596049 C15.078125,15.2486376 15.1132812,14.9128065 15.2070312,14.6580381 C15.4882812,13.9747956 16.1210938,13.2683924 17.1875,13.2683924 C18.5820312,13.2683924 19.1445312,14.3222071 19.1445312,15.8623978 L19.1445312,22 L23,22 L23,15.4223433 Z" id="linkedin---FontAwesome" fill="#FFFFFF"></path>
            </g>
            <g id="Group-13" transform="translate(336.000000, 28.000000)">
                <rect id="Rectangle-34-Copy-4" fill-opacity="0" fill="#000000" x="0" y="0" width="28" height="28"></rect>
                <path d="M9.08984375,10.523842 L5.22265625,10.523842 L5.22265625,22 L9.08984375,22 L9.08984375,10.523842 Z M9.3359375,6.98024523 C9.32421875,5.85694823 8.50390625,5 7.1796875,5 C5.8671875,5 5,5.85694823 5,6.98024523 C5,8.08038147 5.83203125,8.96049046 7.1328125,8.96049046 L7.15625,8.96049046 C8.50390625,8.96049046 9.34765625,8.08038147 9.3359375,6.98024523 L9.3359375,6.98024523 Z M23,15.4223433 C23,11.9019074 21.1015625,10.2574932 18.5585938,10.2574932 C16.4726562,10.2574932 15.5585938,11.403951 15.0546875,12.1914169 L15.078125,12.1914169 L15.078125,10.523842 L11.2226562,10.523842 C11.2226562,10.523842 11.2695312,11.6008174 11.2226562,22 L15.078125,22 L15.078125,15.596049 C15.078125,15.2486376 15.1132812,14.9128065 15.2070312,14.6580381 C15.4882812,13.9747956 16.1210938,13.2683924 17.1875,13.2683924 C18.5820312,13.2683924 19.1445312,14.3222071 19.1445312,15.8623978 L19.1445312,22 L23,22 L23,15.4223433 Z" id="linkedin---FontAwesome-Copy" fill="#0077B9"></path>
            </g>
        </g>
    </g>
</svg>